<!-- Generated by IcoMoon.io -->
<svg version="1.1" xmlns="http://www.w3.org/2000/svg" width="16" height="16" viewBox="0 0 16 16">
<path d="M10.896 9.5c-0.326-1.154-1.388-2-2.646-2s-2.32 0.846-2.646 2h5.293zM8.25 5.5c-0.138 0-0.25 0.108-0.25 0.248v1.005c0 0.137 0.116 0.248 0.25 0.248 0.138 0 0.25-0.108 0.25-0.248v-1.005c0-0.137-0.116-0.248-0.25-0.248v0zM11.619 6.896c-0.098-0.098-0.253-0.101-0.352-0.002l-0.71 0.71c-0.097 0.097-0.093 0.257 0.002 0.352 0.098 0.098 0.253 0.101 0.352 0.002l0.71-0.71c0.097-0.097 0.093-0.257-0.002-0.352v0zM4.881 6.896c-0.098 0.098-0.101 0.253-0.002 0.352l0.71 0.71c0.097 0.097 0.257 0.093 0.352-0.002 0.098-0.098 0.101-0.253 0.002-0.352l-0.71-0.71c-0.097-0.097-0.257-0.093-0.352 0.002v0zM3.754 10.5c-0.14 0-0.254 0.116-0.254 0.25v0c0 0.138 0.113 0.25 0.254 0.25h8.992c0.14 0 0.254-0.116 0.254-0.25v0c0-0.138-0.113-0.25-0.254-0.25h-8.992z"></path>
</svg>
